Coordinates
version=1
nRows=11
nColumns=63
inDegrees=yes

Units are S.I. units (second, meters, Newtons, ...)
If the header above contains a line with 'inDegrees', this indicates whether rotational values are in degrees (yes) or radians (no).

endheader
time	pelvis_tilt	pelvis_list	pelvis_rotation	pelvis_tx	pelvis_ty	pelvis_tz	hip_flexion_r	hip_adduction_r	hip_rotation_r	knee_angle_r	knee_angle_r_beta	ankle_angle_r	subtalar_angle_r	mtp_angle_r	hip_flexion_l	hip_adduction_l	hip_rotation_l	knee_angle_l	knee_angle_l_beta	ankle_angle_l	subtalar_angle_l	mtp_angle_l	L5_S1_Flex_Ext	L5_S1_Lat_Bending	L5_S1_axial_rotation	L4_L5_Flex_Ext	L4_L5_Lat_Bending	L4_L5_axial_rotation	L3_L4_Flex_Ext	L3_L4_Lat_Bending	L3_L4_axial_rotation	L2_L3_Flex_Ext	L2_L3_Lat_Bending	L2_L3_axial_rotation	L1_L2_Flex_Ext	L1_L2_Lat_Bending	L1_L2_axial_rotation	L1_T12_Flex_Ext	L1_T12_Lat_Bending	L1_T12_axial_rotation	Abs_r3	Abs_r2	Abs_r1	Abs_t1	Abs_t2	neck_flexion	neck_bending	neck_rotation	arm_flex_r	arm_add_r	arm_rot_r	elbow_flex_r	pro_sup_r	wrist_flex_r	wrist_dev_r	arm_flex_l	arm_add_l	arm_rot_l	elbow_flex_l	pro_sup_l	wrist_flex_l	wrist_dev_l
0.000000	2.592052	-4.617000	95.598091	0.222176	0.628785	0.573875	4.594877	7.610002	-6.534018	9.732040	0.169856	31.935472	-11.614043	0.000000	4.674217	-5.332347	3.624881	10.257272	0.179023	37.049172	1.987136	0.000000	0.029253	0.265111	-0.887863	0.054325	0.352598	-0.943355	0.048059	0.644591	-0.943355	0.033433	0.644591	-0.776881	0.027164	0.540615	-0.721389	0.016715	0.410657	-0.665898	0.208948	2.998991	-4.938030	0.000000	0.000000	27.743841	-5.196257	-6.442388	20.709577	2.119289	100.415533	23.776246	87.103874	-13.490227	0.231105	12.457355	-1.093506	61.971584	32.318113	67.393486	-1.647971	14.651021
0.016667	2.625828	-3.756675	95.328431	0.221294	0.629856	0.568191	3.218559	7.599771	-7.703315	9.509658	0.165975	32.772777	-9.728437	0.000000	2.961421	-5.448123	2.830290	9.708301	0.169442	37.190618	2.483167	0.000000	-0.009097	0.295524	-0.757891	-0.016893	0.393048	-0.805260	-0.014945	0.718538	-0.805260	-0.010396	0.718538	-0.663155	-0.008447	0.602633	-0.615787	-0.005198	0.457767	-0.568419	-0.064976	3.343032	-4.215165	0.000000	0.000000	26.902639	-5.754181	-6.308257	20.129637	1.591832	96.995644	24.262200	86.890244	-11.738484	0.151403	12.352504	-0.580026	60.238976	32.100360	72.488043	-2.160487	13.549536
0.033333	2.657166	-3.021951	95.072239	0.220572	0.630874	0.563158	2.027996	7.602950	-8.480459	9.293137	0.162196	33.390970	-8.355954	0.000000	1.472917	-5.536106	2.322451	9.187889	0.160359	37.281466	2.737985	0.000000	-0.040408	0.322095	-0.640275	-0.075041	0.428386	-0.680293	-0.066386	0.783142	-0.680293	-0.046182	0.783142	-0.560241	-0.037522	0.656816	-0.520224	-0.023089	0.498925	-0.480207	-0.288627	3.643603	-3.561019	0.000000	0.000000	26.146894	-6.238477	-6.303209	19.560430	1.124596	93.740794	24.713968	86.711042	-10.206774	0.144975	12.287343	-0.139129	58.986398	31.849026	76.719252	-2.665066	12.565217
0.050000	2.687064	-2.404532	94.830675	0.219993	0.631835	0.558739	1.011906	7.618678	-8.909431	9.084672	0.158557	33.809676	-7.445798	0.000000	0.195872	-5.599722	2.071827	8.698743	0.151822	37.327652	2.776776	0.000000	-0.065232	0.345287	-0.535201	-0.121143	0.459231	-0.568651	-0.107170	0.839530	-0.568651	-0.074554	0.839530	-0.468301	-0.060575	0.704109	-0.434851	-0.037274	0.534849	-0.401401	-0.465947	3.905952	-2.976628	0.000000	0.000000	25.474613	-6.654167	-6.405183	19.007784	0.714468	90.665020	25.129635	86.560143	-8.877407	0.203088	12.260693	0.235579	58.177872	31.567109	80.160795	-3.156762	11.690322
0.066667	2.716518	-1.896126	94.604899	0.219542	0.632733	0.554898	0.159008	7.646093	-9.034214	8.886459	0.155098	34.048515	-6.947172	0.000000	-0.882551	-5.642394	2.048882	8.243573	0.143877	37.335110	2.624727	0.000000	-0.084123	0.365563	-0.442854	-0.156224	0.486199	-0.470533	-0.138205	0.888831	-0.470533	-0.096144	0.888831	-0.387497	-0.078116	0.745457	-0.359819	-0.048068	0.566258	-0.332141	-0.600879	4.135327	-2.463022	0.000000	0.000000	24.883798	-7.006276	-6.592115	18.477522	0.358332	87.782358	25.507285	86.431424	-7.732694	0.317012	12.271376	0.550494	57.777424	31.257609	82.886355	-3.630630	10.917113
0.083333	2.746527	-1.488440	94.396068	0.219203	0.633562	0.551599	-0.541982	7.684333	-8.898791	8.700693	0.151856	34.127110	-6.809281	0.000000	-1.775184	-5.667548	2.224082	7.825087	0.136574	37.309778	2.307025	0.000000	-0.097630	0.383389	-0.363420	-0.181310	0.509908	-0.386134	-0.160397	0.932172	-0.386134	-0.111582	0.932172	-0.317993	-0.090660	0.781807	-0.295279	-0.055786	0.593870	-0.272565	-0.697365	4.336974	-2.021234	0.000000	0.000000	24.372454	-7.299826	-6.841943	17.975472	0.053074	85.106845	25.845002	86.318761	-6.754945	0.478012	12.318214	0.812012	57.749077	30.923525	84.969615	-4.081726	10.237847
0.100000	2.778085	-1.173178	94.205344	0.218961	0.634319	0.548804	-1.102345	7.732539	-8.547145	8.529568	0.148869	34.065083	-6.981326	0.000000	-2.494864	-5.678609	2.567891	7.445992	0.129957	37.257591	1.848856	0.000000	-0.106308	0.399228	-0.297085	-0.197424	0.530973	-0.315653	-0.174653	0.970682	-0.315653	-0.121499	0.970682	-0.259949	-0.098717	0.814105	-0.241382	-0.060744	0.618404	-0.222814	-0.759346	4.516143	-1.652298	0.000000	0.000000	23.938584	-7.539842	-7.132603	17.507459	-0.204420	82.652518	26.140871	86.216030	-5.926469	0.677356	12.400030	1.026528	58.056854	30.567857	86.484255	-4.505106	9.644785
0.116667	2.812192	-0.942048	94.033886	0.218799	0.634999	0.546478	-1.533364	7.789847	-8.023257	8.375280	0.146176	33.882058	-7.412513	0.000000	-3.054424	-5.679000	3.050772	7.108999	0.124075	37.184485	1.275408	0.000000	-0.110706	0.413543	-0.244034	-0.205593	0.550012	-0.259286	-0.181879	1.005488	-0.259286	-0.126526	1.005488	-0.213530	-0.102802	0.843297	-0.198278	-0.063258	0.640578	-0.183026	-0.790764	4.678079	-1.357245	0.000000	0.000000	23.580195	-7.731346	-7.442032	17.079309	-0.417265	80.433414	26.392975	86.117108	-5.229577	0.906313	12.515645	1.200438	58.664781	30.193605	87.503959	-4.895824	9.130187
0.133333	2.849843	-0.786757	93.882852	0.218701	0.635595	0.544584	-1.846320	7.855397	-7.371111	8.240024	0.143816	33.597655	-8.052043	0.000000	-3.466699	-5.672147	3.643191	6.816815	0.118976	37.096395	0.611866	0.000000	-0.111378	0.426799	-0.204453	-0.206840	0.567642	-0.217232	-0.182983	1.037718	-0.217232	-0.127294	1.037718	-0.178897	-0.103426	0.870328	-0.166118	-0.063641	0.661111	-0.153340	-0.795562	4.828032	-1.137108	0.000000	0.000000	23.295288	-7.879362	-7.748168	16.696847	-0.588575	78.463569	26.599399	86.015871	-4.646580	1.156149	12.663881	1.340136	59.536879	29.803768	88.102408	-5.248937	8.686311
0.150000	2.892036	-0.699009	93.753403	0.218653	0.636103	0.543085	-2.052495	7.928328	-6.634690	8.125995	0.141825	33.231497	-8.849122	0.000000	-3.744524	-5.661474	4.315611	6.572149	0.114706	36.999257	-0.116582	0.000000	-0.108875	0.439459	-0.178528	-0.202192	0.584480	-0.189686	-0.178871	1.068500	-0.189686	-0.124433	1.068500	-0.156212	-0.101101	0.896145	-0.145054	-0.062211	0.680722	-0.133896	-0.777682	4.971247	-0.992920	0.000000	0.000000	23.081870	-7.988913	-8.028947	16.365899	-0.721466	76.757019	26.758227	85.906195	-4.159786	1.418132	12.843561	1.452019	60.637173	29.401345	88.353285	-5.559499	8.305417
0.166667	2.939769	-0.670513	93.646698	0.218639	0.636518	0.541945	-2.163171	8.007778	-5.857975	8.035388	0.140244	32.803207	-9.752952	0.000000	-3.900733	-5.650406	5.038497	6.377709	0.111312	36.899007	-0.884749	0.000000	-0.103749	0.451988	-0.166444	-0.192672	0.601144	-0.176847	-0.170449	1.098963	-0.176847	-0.118574	1.098963	-0.145639	-0.096341	0.921693	-0.135236	-0.059282	0.700129	-0.124833	-0.741066	5.112974	-0.925713	0.000000	0.000000	22.937943	-8.065023	-8.262307	16.092292	-0.819051	75.327802	26.867544	85.781957	-3.751506	1.683530	13.053506	1.542481	61.929688	28.989337	88.330272	-5.822566	7.979764
